<svg xmlns="http://www.w3.org/2000/svg" viewBox="0 0 149.25 165.25"><defs><style>.cls-1{fill:#2b2d3f;}</style></defs><title>Tako-icon-dark_1</title><g id="Layer_2" data-name="Layer 2"><g id="logo_full1" data-name="logo full1"><path class="cls-1" d="M102,82.41l-22,21.9L100.44,125a20.72,20.72,0,0,0,15.5,6.9,21.9,21.9,0,0,0,3.58-.3,20.7,20.7,0,0,0,16.88-16.74,21.42,21.42,0,0,0,.3-5l-10.93.65a10.52,10.52,0,0,1-.15,2.49,9.8,9.8,0,0,1-7.93,7.86,9.92,9.92,0,0,1-9.17-3.19l-13-13.25,14.36-14.31,2.5-2.74A51.58,51.58,0,1,0,39.8,89.16l14.71,15.17L41.58,117.44l-.19.19a10,10,0,0,1-9.17,3.19A9.82,9.82,0,0,1,24.28,113a10.52,10.52,0,0,1-.15-2.49l-10.92-.65a22,22,0,0,0,.29,5A20.73,20.73,0,0,0,30.39,131.6a21.8,21.8,0,0,0,3.58.3,20.74,20.74,0,0,0,15.5-6.9l20.34-20.62-3.73-3.83-.79-.81L47.57,81.45l-.2-.18a40.65,40.65,0,1,1,57.05-1.48Z"/><path class="cls-1" d="M44.48,147.68l-.2.21a19.07,19.07,0,0,1-33-9.09,20.19,20.19,0,0,1-.17-5.85L.21,131.65a31.33,31.33,0,0,0,.27,9.06A29.8,29.8,0,0,0,24.8,164.82a31.3,31.3,0,0,0,5.18.43,29.89,29.89,0,0,0,22.38-10L67.1,140.31l-7.79-7.68Z"/><path class="cls-1" d="M138.17,133a20.19,20.19,0,0,1-.17,5.85,19.07,19.07,0,0,1-33,9.09l-15-15.26-7.79,7.68,14.74,14.95a29.89,29.89,0,0,0,22.38,10,31.39,31.39,0,0,0,5.18-.43,29.8,29.8,0,0,0,24.32-24.11,31.33,31.33,0,0,0,.27-9.06Z"/></g></g></svg>